<svg width="149" height="198" viewBox="0 0 149 198" fill="none" xmlns="http://www.w3.org/2000/svg">
<path d="M55.9809 0.302549C23.121 8.69032 0.171753 38.2634 0.171753 72.2188C0.171753 93.3081 9.03865 113.18 24.6042 127.253L1.0705 168.728C0.31366 170.063 0.408265 171.717 1.31159 172.956C2.21491 174.197 3.7591 174.793 5.26209 174.48L31.9879 168.931L41.3812 195.4C41.8909 196.841 43.1955 197.849 44.7183 197.985C46.2412 198.121 47.7014 197.353 48.4567 196.024L74.3906 150.431L100.323 196.024C101.022 197.253 102.322 197.999 103.717 197.999C103.831 197.999 103.947 197.994 104.061 197.985C105.584 197.849 106.889 196.839 107.4 195.4L116.792 168.931L143.518 174.48C145.019 174.792 146.565 174.195 147.468 172.956C148.373 171.717 148.466 170.063 147.709 168.728L124.176 127.253C139.741 113.18 148.608 93.3081 148.608 72.2188C148.608 38.2634 125.659 8.69032 92.8004 0.302549C90.7084 -0.231509 88.5828 1.03039 88.0488 3.12085C87.5147 5.21131 88.7766 7.33839 90.8671 7.87245C120.265 15.3767 140.797 41.837 140.797 72.2188C140.797 109.196 110.766 138.625 74.3906 138.625C37.9892 138.625 7.98427 109.171 7.98427 72.2188C7.98427 41.837 28.515 15.3767 57.9126 7.87245C60.0031 7.33839 61.265 5.21131 60.7325 3.12085C60.1984 1.03039 58.0728 -0.231509 55.9809 0.302549ZM45.8887 184.74L38.212 163.108C37.5589 161.268 35.6485 160.192 33.7366 160.589L12.1255 165.076L30.7504 132.252C41.6101 140.146 54.4687 144.956 67.84 146.146L45.8887 184.74ZM115.043 160.589C113.133 160.192 111.221 161.268 110.568 163.108L102.893 184.74L80.9397 146.146C94.3125 144.956 107.17 140.146 118.031 132.252L136.656 165.076L115.043 160.589Z" fill="white"/>
</svg>
