<svg width="200" height="132" viewBox="0 0 200 132" fill="none" xmlns="http://www.w3.org/2000/svg">
<path d="M191.622 101.069H160.736C162.592 100.451 164.445 99.7818 166.252 99.0586C178.071 94.3345 184.065 88.7816 184.065 82.553C184.065 72.9793 176.309 69.7625 169.466 66.9265C166.533 65.7111 163.503 64.4528 161.02 62.7451C159.684 61.8277 157.855 62.1656 156.938 63.5003C156.019 64.8365 156.357 66.6635 157.693 67.5824C160.684 69.6402 164.006 71.0177 167.217 72.3494C174.228 75.2558 178.194 77.1622 178.194 82.553C178.194 85.9914 173.048 90.02 164.073 93.6082C153.321 97.9059 140.842 100.234 135.734 101.069H126.121C132.705 95.9337 137.372 88.8993 140.357 79.5886C143.993 68.2566 149.176 59.9335 157.166 52.6026C159.383 50.5676 160.369 47.6949 160.023 44.9689L176.764 32.5148C177.22 32.1769 177.847 32.1647 178.325 32.4858C181.952 34.9212 185.682 35.5878 189.111 34.4121C191.816 33.4856 193.935 31.547 195.08 28.9526C196.268 26.2587 196.256 23.1123 195.043 20.3191C193.455 16.659 190.073 14.1684 186.216 13.7205C186.943 9.90596 185.578 5.93244 182.562 3.32113C180.261 1.32902 177.263 0.373482 174.335 0.700659C171.519 1.01561 169.034 2.45885 167.339 4.76132C165.191 7.68146 164.709 11.4394 165.948 15.6285C166.111 16.1804 165.912 16.7751 165.458 17.1054L148.557 29.3516C146.059 28.2065 143.022 28.286 140.417 29.7919C131.03 35.2194 121.537 37.6717 109.636 37.7466C99.416 37.8108 91.0133 40.3625 83.9484 45.5514C76.0626 51.3397 70.7773 59.695 69.0649 69.0746C67.3419 78.5183 69.438 87.8674 74.9679 95.3985C76.5105 97.4992 78.2901 99.3965 80.2624 101.069H43.0819C20.4944 96.5192 9.51413 85.2561 9.51413 66.6421C9.51413 52.4803 15.8421 37.8827 26.8774 26.592C38.8041 14.3871 54.7349 7.66617 71.7313 7.66617C91.2029 7.66617 111.445 14.7693 127.269 27.1546C128.545 28.1545 130.391 27.9282 131.389 26.6516C132.389 25.375 132.164 23.5312 130.888 22.5313C114.052 9.35403 92.4902 1.79533 71.7313 1.79533C53.1403 1.79533 35.7204 9.14458 22.6792 22.4885C10.5813 34.8662 3.64329 50.9606 3.64329 66.6421C3.64329 82.5408 10.6654 94.0623 24.5459 101.069H7.98679C3.36656 101.069 -0.391388 104.827 -0.391388 109.447C-0.391388 114.068 3.36656 117.827 7.98679 117.827H18.6308C18.7959 117.827 18.9426 117.925 19.0053 118.078L20.869 122.64C23.0721 128.034 28.2595 131.518 34.086 131.518H165.523C171.349 131.518 176.537 128.034 178.74 122.64L180.603 118.079C180.666 117.926 180.813 117.827 180.978 117.827H191.622C196.241 117.827 200 114.068 200 109.447C200 104.829 196.242 101.069 191.622 101.069ZM168.907 21.8556C171.369 20.0637 172.442 16.8929 171.577 13.9636C171.091 12.3185 170.78 9.98851 172.068 8.23949C172.98 6.99805 174.159 6.62807 174.988 6.53481C176.295 6.38957 177.653 6.83599 178.72 7.75943C180.626 9.4106 180.79 11.6427 180.307 13.1808C179.845 14.6516 180.12 16.2706 181.044 17.5182C181.956 18.7703 183.418 19.5164 184.958 19.5164H184.959C186.572 19.5164 188.653 20.342 189.657 22.6567C190.218 23.9501 190.238 25.3827 189.708 26.5828C189.371 27.3442 188.663 28.3578 187.206 28.8578C185.153 29.561 183.022 28.5688 181.597 27.6117C179.064 25.9101 175.717 25.9835 173.265 27.7998L157.392 39.6072L152.882 33.4658L168.907 21.8556ZM79.7013 91.925C75.1361 85.7071 73.41 77.9664 74.841 70.1295C76.2827 62.2298 80.7516 55.1802 87.422 50.2833C93.4549 45.8526 100.734 43.6725 109.673 43.6174C122.65 43.5349 133.037 40.8395 143.356 34.8738C144.492 34.218 145.834 34.3143 146.688 35.0527C146.701 35.0634 146.713 35.0726 146.725 35.0833C146.843 35.1903 146.953 35.3096 147.049 35.4411L153.761 44.5837C153.854 44.7106 153.938 44.8527 154.007 45.0072C154.01 45.0133 154.013 45.0179 154.016 45.0224C154.478 46.0636 154.169 47.3845 153.195 48.2774C144.415 56.3345 138.731 65.4389 134.768 77.7952C132.037 86.3079 127.776 92.5992 121.744 97.0283C119.493 98.681 117.039 100.04 114.448 101.069H91.3879C86.7019 99.1213 82.6703 95.9688 79.7013 91.925ZM191.622 111.956H62.2095C60.5889 111.956 59.2741 113.269 59.2741 114.892C59.2741 116.512 60.5889 117.827 62.2095 117.827H174.364L173.306 120.42C172.008 123.595 168.953 125.647 165.523 125.647H34.086C30.6553 125.647 27.6006 123.595 26.3026 120.42L25.2446 117.827H48.5522C50.1728 117.827 51.4876 116.512 51.4876 114.892C51.4876 113.269 50.1728 111.956 48.5522 111.956H7.98679C6.60317 111.956 5.47945 110.831 5.47945 109.447C5.47945 108.065 6.60317 106.94 7.98679 106.94H191.622C193.004 106.94 194.129 108.065 194.129 109.447C194.129 110.831 193.004 111.956 191.622 111.956Z" fill="white"/>
</svg>
