<svg width="200" height="200" viewBox="0 0 200 200" fill="none" xmlns="http://www.w3.org/2000/svg">
<path d="M194.691 68.6352L131.361 5.30547C127.942 1.88712 123.383 0.00430298 118.523 0.00430298C113.663 0.00430298 109.104 1.88633 105.685 5.30469L5.30117 105.689C1.88281 109.107 0 113.666 0 118.526C0 123.386 1.88281 127.946 5.30117 131.364L13.1105 139.173C13.1113 139.173 13.1117 139.174 13.1125 139.175C13.1133 139.176 13.1141 139.177 13.1148 139.177L65.5992 191.662H58.332C56.0312 191.662 54.1656 193.527 54.1656 195.828C54.1656 198.129 56.0312 199.995 58.332 199.995H81.4527C81.4582 199.995 81.4633 199.995 81.4688 199.995C81.4742 199.995 81.4793 199.995 81.4848 199.995L141.662 199.995C143.962 199.995 145.828 198.13 145.828 195.829C145.828 193.528 143.962 191.663 141.662 191.663L97.3398 191.662L194.691 94.3102C201.77 87.2313 201.77 75.7133 194.691 68.6352ZM188.799 88.418L88.4145 188.802C86.5734 190.643 84.1125 191.658 81.484 191.662H81.4523C78.8246 191.657 76.3644 190.643 74.5242 188.802L21.9512 136.229L118.355 39.8238C119.982 38.1969 119.982 35.5586 118.355 33.9316C116.728 32.3047 114.091 32.3047 112.463 33.932L16.0586 130.337L11.193 125.471C9.34883 123.627 8.3332 121.161 8.3332 118.527C8.3332 115.892 9.34883 113.425 11.1934 111.581L111.577 11.1973C113.421 9.35313 115.888 8.33751 118.523 8.33751C121.157 8.33751 123.624 9.35313 125.468 11.1977L148.009 33.7375L51.6031 130.144C49.9762 131.77 49.9762 134.409 51.6031 136.036C52.4168 136.85 53.4832 137.256 54.5492 137.256C55.6152 137.256 56.6816 136.849 57.4953 136.036L153.901 39.6301L188.799 74.527C192.628 78.3566 192.628 84.5883 188.799 88.418Z" fill="white"/>
</svg>
