<svg width="200" height="128" viewBox="0 0 200 128" fill="none" xmlns="http://www.w3.org/2000/svg">
<path d="M185.999 54.3762L180.82 33.6594C182.236 33.3586 183.298 32.1023 183.298 30.5973V27.257C183.298 20.0047 177.398 14.1047 170.146 14.1047H146.555V7.21483C146.555 3.64608 143.652 0.742958 140.084 0.742958H19.8328C16.2641 0.742958 13.3609 3.64608 13.3609 7.21483V64C13.3609 65.7293 14.7629 67.1316 16.4926 67.1316C18.2219 67.1316 19.6242 65.7297 19.6242 64V7.21483C19.6242 7.0996 19.7176 7.00624 19.8328 7.00624H140.083C140.198 7.00624 140.292 7.0996 140.292 7.21483V64.0008C140.292 65.7301 141.694 67.1324 143.423 67.1324C145.153 67.1324 146.555 65.7305 146.555 64.0008V60.4508H183.496C183.499 60.4508 183.502 60.4516 183.504 60.4516C183.507 60.4516 183.51 60.4512 183.513 60.4512C188.059 60.4543 191.918 63.4379 193.244 67.5492H183.507C181.777 67.5492 180.375 68.9512 180.375 70.6808V77.3613C180.375 82.7719 184.777 87.1734 190.187 87.1734H193.736V100.952H185.548C182.858 93.1851 175.475 87.5906 166.805 87.5906C158.135 87.5906 150.752 93.1851 148.062 100.952H146.554V77.3609C146.554 75.6316 145.152 74.2293 143.423 74.2293C141.693 74.2293 140.291 75.6312 140.291 77.3609V100.951H75.3191C72.6293 93.1844 65.2461 87.5898 56.5762 87.5898C47.9063 87.5898 40.5227 93.1844 37.8332 100.951H19.8328C19.7176 100.951 19.6242 100.858 19.6242 100.743V93.8531H33.1941C34.9234 93.8531 36.3258 92.4512 36.3258 90.7215C36.3258 88.9918 34.9238 87.5898 33.1941 87.5898H3.13164C1.40234 87.5898 0 88.9918 0 90.7215C0 92.4512 1.40195 93.8531 3.13164 93.8531H13.3613V100.743C13.3613 104.311 16.2645 107.214 19.8332 107.214H36.7488C36.748 107.284 36.7434 107.353 36.7434 107.423C36.7434 118.359 45.6406 127.256 56.5762 127.256C67.5117 127.256 76.409 118.359 76.409 107.423C76.409 107.353 76.4043 107.284 76.4035 107.214H146.978C146.977 107.284 146.972 107.353 146.972 107.423C146.972 118.359 155.87 127.256 166.805 127.256C177.741 127.256 186.638 118.359 186.638 107.423C186.638 107.353 186.633 107.284 186.632 107.214H196.868C198.597 107.214 200 105.812 200 104.083V70.6801C200 62.4332 193.915 55.5812 185.999 54.3762ZM146.555 20.3676H170.146C173.945 20.3676 177.036 23.4582 177.036 27.257V27.4656H146.555V20.3676ZM146.555 54.1879V33.7285H174.382L179.496 54.1879H146.555ZM56.5762 120.994C49.0938 120.994 43.0062 114.907 43.0062 107.424C43.0062 99.941 49.0938 93.8539 56.5762 93.8539C64.0586 93.8539 70.1461 99.941 70.1461 107.424C70.1461 114.907 64.0586 120.994 56.5762 120.994ZM166.806 120.994C159.323 120.994 153.236 114.907 153.236 107.424C153.236 99.941 159.323 93.8539 166.806 93.8539C174.288 93.8539 180.376 99.941 180.376 107.424C180.376 114.907 174.288 120.994 166.806 120.994ZM193.737 80.9101H190.188C188.231 80.9101 186.639 79.318 186.639 77.3609V73.8117H193.737V80.9101H193.737Z" fill="white"/>
</svg>
