<svg width="354" height="196" viewBox="0 0 354 196" fill="none" xmlns="http://www.w3.org/2000/svg">
<rect width="354" height="196" rx="30" fill="#ECF0F1"/>
<mask id="mask0_28_152" style="mask-type:alpha" maskUnits="userSpaceOnUse" x="0" y="0" width="354" height="196">
<rect width="354" height="196" rx="30" fill="#C4C4C4"/>
</mask>
<g mask="url(#mask0_28_152)">
<circle cx="309.7" cy="43" r="165" fill="#F1C40F"/>
<circle cx="82" cy="43" r="165" fill="#E74C3C"/>
<mask id="mask1_28_152" style="mask-type:alpha" maskUnits="userSpaceOnUse" x="-83" y="-122" width="330" height="330">
<circle cx="82" cy="43" r="165" fill="#E74C3C"/>
</mask>
<g mask="url(#mask1_28_152)">
<circle cx="309.7" cy="43" r="165" fill="#F1C40F" fill-opacity="0.3"/>
</g>
</g>
<circle cx="300.166" cy="161.834" r="11.8343" fill="#ECF0F1"/>
<circle cx="283.834" cy="161.834" r="11.8343" fill="white"/>
<mask id="mask2_28_152" style="mask-type:alpha" maskUnits="userSpaceOnUse" x="272" y="150" width="24" height="24">
<circle cx="283.834" cy="161.834" r="11.8343" fill="#E74C3C"/>
</mask>
<g mask="url(#mask2_28_152)">
<circle cx="300.166" cy="161.834" r="11.8343" fill="#ECF0F1" fill-opacity="0.3"/>
</g>
<path d="M46.5385 22.364V35H43.4605V22.364H46.5385ZM54.0671 32.39V35H52.5011C51.3851 35 50.5151 34.73 49.8911 34.19C49.2671 33.638 48.9551 32.744 48.9551 31.508V27.512H47.7311V24.956H48.9551V22.508H52.0331V24.956H54.0491V27.512H52.0331V31.544C52.0331 31.844 52.1051 32.06 52.2491 32.192C52.3931 32.324 52.6331 32.39 52.9691 32.39H54.0671ZM60.0536 35.144C59.0696 35.144 58.1816 34.934 57.3896 34.514C56.6096 34.094 55.9916 33.494 55.5356 32.714C55.0916 31.934 54.8696 31.022 54.8696 29.978C54.8696 28.946 55.0976 28.04 55.5536 27.26C56.0096 26.468 56.6336 25.862 57.4256 25.442C58.2176 25.022 59.1056 24.812 60.0896 24.812C61.0736 24.812 61.9616 25.022 62.7536 25.442C63.5456 25.862 64.1696 26.468 64.6256 27.26C65.0816 28.04 65.3096 28.946 65.3096 29.978C65.3096 31.01 65.0756 31.922 64.6076 32.714C64.1516 33.494 63.5216 34.094 62.7176 34.514C61.9256 34.934 61.0376 35.144 60.0536 35.144ZM60.0536 32.48C60.6416 32.48 61.1396 32.264 61.5476 31.832C61.9676 31.4 62.1776 30.782 62.1776 29.978C62.1776 29.174 61.9736 28.556 61.5656 28.124C61.1696 27.692 60.6776 27.476 60.0896 27.476C59.4896 27.476 58.9916 27.692 58.5956 28.124C58.1996 28.544 58.0016 29.162 58.0016 29.978C58.0016 30.782 58.1936 31.4 58.5776 31.832C58.9736 32.264 59.4656 32.48 60.0536 32.48ZM72.8166 24.848C73.9686 24.848 74.8926 25.232 75.5886 26C76.2846 26.756 76.6326 27.8 76.6326 29.132V35H73.5726V29.546C73.5726 28.874 73.3986 28.352 73.0506 27.98C72.7026 27.608 72.2346 27.422 71.6466 27.422C71.0586 27.422 70.5906 27.608 70.2426 27.98C69.8946 28.352 69.7206 28.874 69.7206 29.546V35H66.6426V21.68H69.7206V26.306C70.0326 25.862 70.4586 25.508 70.9986 25.244C71.5386 24.98 72.1446 24.848 72.8166 24.848Z" fill="white"/>
<path d="M280.243 22.1445H277.265L276.596 24H275.629L278.344 16.8906H279.164L281.884 24H280.922L280.243 22.1445ZM277.548 21.373H279.965L278.754 18.0479L277.548 21.373ZM283.244 23.2334H287.311V24H282.136V23.2969L286.032 17.6621H282.199V16.8906H287.155V17.5791L283.244 23.2334ZM290.835 21.124H289.165V24H288.222V16.8906H290.576C291.377 16.8906 291.992 17.0729 292.421 17.4375C292.854 17.8021 293.071 18.3327 293.071 19.0293C293.071 19.472 292.95 19.8577 292.71 20.1865C292.472 20.5153 292.14 20.7611 291.713 20.9238L293.383 23.9414V24H292.378L290.835 21.124ZM289.165 20.3574H290.605C291.071 20.3574 291.44 20.237 291.713 19.9961C291.99 19.7552 292.129 19.4329 292.129 19.0293C292.129 18.5898 291.997 18.2529 291.733 18.0186C291.473 17.7842 291.095 17.6654 290.6 17.6621H289.165V20.3574ZM298.015 22.1445H295.037L294.368 24H293.401L296.116 16.8906H296.936L299.656 24H298.694L298.015 22.1445ZM295.32 21.373H297.737L296.526 18.0479L295.32 21.373ZM304.331 20.7139H301.25V23.2334H304.829V24H300.313V16.8906H304.78V17.6621H301.25V19.9473H304.331V20.7139ZM311.16 24H310.218L306.639 18.5215V24H305.696V16.8906H306.639L310.228 22.3936V16.8906H311.16V24Z" fill="white"/>
<path d="M48.2891 117H47.3467L43.7676 111.521V117H42.8252V109.891H43.7676L47.3564 115.394V109.891H48.2891V117ZM49.2732 114.31C49.2732 113.792 49.3742 113.326 49.576 112.913C49.7811 112.5 50.0643 112.181 50.4256 111.956C50.7902 111.731 51.2052 111.619 51.6707 111.619C52.3901 111.619 52.9712 111.868 53.4139 112.366C53.8598 112.864 54.0828 113.527 54.0828 114.354V114.417C54.0828 114.931 53.9835 115.394 53.785 115.804C53.5896 116.211 53.3081 116.528 52.9402 116.756C52.5757 116.984 52.1557 117.098 51.6805 117.098C50.9643 117.098 50.3833 116.849 49.9373 116.351C49.4946 115.853 49.2732 115.193 49.2732 114.373V114.31ZM50.1814 114.417C50.1814 115.003 50.3165 115.473 50.5867 115.828C50.8602 116.183 51.2247 116.36 51.6805 116.36C52.1395 116.36 52.504 116.181 52.7742 115.823C53.0444 115.462 53.1795 114.957 53.1795 114.31C53.1795 113.73 53.0411 113.261 52.7645 112.903C52.491 112.542 52.1264 112.361 51.6707 112.361C51.2247 112.361 50.865 112.539 50.5916 112.894C50.3182 113.248 50.1814 113.756 50.1814 114.417ZM61.1635 115.145H58.185L57.516 117H56.5492L59.2641 109.891H60.0844L62.8041 117H61.8422L61.1635 115.145ZM58.4682 114.373H60.8852L59.6742 111.048L58.4682 114.373ZM64.1643 116.233H68.2316V117H63.0559V116.297L66.9523 110.662H63.1193V109.891H68.0754V110.579L64.1643 116.233ZM71.7549 114.124H70.085V117H69.1426V109.891H71.4961C72.2969 109.891 72.9121 110.073 73.3418 110.438C73.7747 110.802 73.9912 111.333 73.9912 112.029C73.9912 112.472 73.8708 112.858 73.6299 113.187C73.3923 113.515 73.0602 113.761 72.6338 113.924L74.3037 116.941V117H73.2979L71.7549 114.124ZM70.085 113.357H71.5254C71.9909 113.357 72.3604 113.237 72.6338 112.996C72.9105 112.755 73.0488 112.433 73.0488 112.029C73.0488 111.59 72.917 111.253 72.6533 111.019C72.3929 110.784 72.0153 110.665 71.5205 110.662H70.085V113.357ZM78.9354 115.145H75.9568L75.2879 117H74.3211L77.0359 109.891H77.8563L80.576 117H79.6141L78.9354 115.145ZM76.24 114.373H78.657L77.4461 111.048L76.24 114.373ZM85.2516 113.714H82.1705V116.233H85.7496V117H81.233V109.891H85.7008V110.662H82.1705V112.947H85.2516V113.714ZM92.0805 117H91.1381L87.559 111.521V117H86.6166V109.891H87.559L91.1479 115.394V109.891H92.0805V117ZM95.626 117V109.891H97.9502C98.7217 109.891 99.3011 110.05 99.6885 110.369C100.079 110.688 100.274 111.16 100.274 111.785C100.274 112.117 100.18 112.412 99.9912 112.669C99.8024 112.923 99.5452 113.12 99.2197 113.26C99.6038 113.367 99.9066 113.572 100.128 113.875C100.353 114.174 100.465 114.533 100.465 114.949C100.465 115.587 100.258 116.089 99.8447 116.453C99.4313 116.818 98.847 117 98.0918 117H95.626ZM96.5635 113.675V116.233H98.1113C98.5475 116.233 98.891 116.121 99.1416 115.896C99.3955 115.669 99.5225 115.356 99.5225 114.959C99.5225 114.103 99.057 113.675 98.126 113.675H96.5635ZM96.5635 112.923H97.9795C98.3896 112.923 98.7168 112.82 98.9609 112.615C99.2083 112.41 99.332 112.132 99.332 111.78C99.332 111.39 99.2181 111.106 98.9902 110.931C98.7624 110.752 98.4157 110.662 97.9502 110.662H96.5635V112.923ZM104.677 117C104.624 116.896 104.582 116.71 104.55 116.443C104.13 116.88 103.628 117.098 103.046 117.098C102.525 117.098 102.097 116.951 101.762 116.658C101.429 116.362 101.263 115.988 101.263 115.535C101.263 114.985 101.472 114.559 101.888 114.256C102.308 113.95 102.898 113.797 103.656 113.797H104.535V113.382C104.535 113.066 104.441 112.815 104.252 112.63C104.063 112.441 103.785 112.347 103.417 112.347C103.095 112.347 102.824 112.428 102.606 112.591C102.388 112.754 102.279 112.951 102.279 113.182H101.371C101.371 112.918 101.464 112.664 101.649 112.42C101.838 112.173 102.092 111.977 102.411 111.834C102.733 111.691 103.086 111.619 103.471 111.619C104.079 111.619 104.556 111.772 104.901 112.078C105.246 112.381 105.425 112.799 105.438 113.333V115.765C105.438 116.25 105.5 116.635 105.624 116.922V117H104.677ZM103.178 116.312C103.461 116.312 103.729 116.238 103.983 116.092C104.237 115.945 104.421 115.755 104.535 115.521V114.437H103.827C102.72 114.437 102.167 114.76 102.167 115.408C102.167 115.691 102.261 115.913 102.45 116.072C102.639 116.232 102.881 116.312 103.178 116.312ZM107.409 111.717L107.438 112.381C107.842 111.873 108.369 111.619 109.02 111.619C110.137 111.619 110.7 112.249 110.71 113.509V117H109.806V113.504C109.803 113.123 109.715 112.841 109.543 112.659C109.373 112.477 109.108 112.386 108.747 112.386C108.454 112.386 108.197 112.464 107.975 112.62C107.754 112.776 107.581 112.981 107.458 113.235V117H106.554V111.717H107.409ZM113.246 114.554L112.68 115.145V117H111.777V109.5H112.68V114.036L113.163 113.455L114.809 111.717H115.908L113.852 113.924L116.147 117H115.087L113.246 114.554Z" fill="white"/>
<path d="M42.552 136.176V135.144L46.584 129.36H48.24V134.988H49.356V136.176H48.24V138H46.896V136.176H42.552ZM46.956 130.752L44.124 134.988H46.956V130.752ZM50.0215 136.176V135.144L54.0535 129.36H55.7095V134.988H56.8255V136.176H55.7095V138H54.3655V136.176H50.0215ZM54.4255 130.752L51.5935 134.988H54.4255V130.752ZM57.4911 136.176V135.144L61.5231 129.36H63.1791V134.988H64.2951V136.176H63.1791V138H61.8351V136.176H57.4911ZM61.8951 130.752L59.0631 134.988H61.8951V130.752ZM64.9606 136.176V135.144L68.9926 129.36H70.6486V134.988H71.7646V136.176H70.6486V138H69.3046V136.176H64.9606ZM69.3646 130.752L66.5326 134.988H69.3646V130.752ZM79.3993 129.852L79.9393 130.812L78.2953 131.424L79.9393 132.036L79.3873 133.02L78.0193 131.94L78.2713 133.68H77.1673L77.3953 131.94L76.0273 133.044L75.4513 132.024L77.0833 131.412L75.4513 130.824L76.0033 129.84L77.4073 130.92L77.1673 129.168H78.2833L78.0193 130.92L79.3993 129.852ZM85.1462 129.852L85.6862 130.812L84.0422 131.424L85.6862 132.036L85.1342 133.02L83.7662 131.94L84.0182 133.68H82.9142L83.1422 131.94L81.7742 133.044L81.1982 132.024L82.8302 131.412L81.1982 130.824L81.7502 129.84L83.1542 130.92L82.9142 129.168H84.0302L83.7662 130.92L85.1462 129.852ZM90.8931 129.852L91.4331 130.812L89.7891 131.424L91.4331 132.036L90.8811 133.02L89.5131 131.94L89.7651 133.68H88.6611L88.8891 131.94L87.5211 133.044L86.9451 132.024L88.5771 131.412L86.9451 130.824L87.4971 129.84L88.9011 130.92L88.6611 129.168H89.7771L89.5131 130.92L90.8931 129.852ZM96.6399 129.852L97.1799 130.812L95.5359 131.424L97.1799 132.036L96.6279 133.02L95.2599 131.94L95.5119 133.68H94.4079L94.6359 131.94L93.2679 133.044L92.6919 132.024L94.3239 131.412L92.6919 130.824L93.2439 129.84L94.6479 130.92L94.4079 129.168H95.5239L95.2599 130.92L96.6399 129.852ZM105.204 129.852L105.744 130.812L104.1 131.424L105.744 132.036L105.192 133.02L103.824 131.94L104.076 133.68H102.972L103.2 131.94L101.832 133.044L101.256 132.024L102.888 131.412L101.256 130.824L101.808 129.84L103.212 130.92L102.972 129.168H104.088L103.824 130.92L105.204 129.852ZM110.951 129.852L111.491 130.812L109.847 131.424L111.491 132.036L110.939 133.02L109.571 131.94L109.823 133.68H108.719L108.947 131.94L107.579 133.044L107.003 132.024L108.635 131.412L107.003 130.824L107.555 129.84L108.959 130.92L108.719 129.168H109.835L109.571 130.92L110.951 129.852ZM116.698 129.852L117.238 130.812L115.594 131.424L117.238 132.036L116.686 133.02L115.318 131.94L115.57 133.68H114.466L114.694 131.94L113.326 133.044L112.75 132.024L114.382 131.412L112.75 130.824L113.302 129.84L114.706 130.92L114.466 129.168H115.582L115.318 130.92L116.698 129.852ZM122.445 129.852L122.985 130.812L121.341 131.424L122.985 132.036L122.433 133.02L121.065 131.94L121.317 133.68H120.213L120.441 131.94L119.073 133.044L118.497 132.024L120.129 131.412L118.497 130.824L119.049 129.84L120.453 130.92L120.213 129.168H121.329L121.065 130.92L122.445 129.852ZM131.729 131.28C131.641 130.912 131.481 130.636 131.249 130.452C131.017 130.268 130.693 130.176 130.277 130.176C129.645 130.176 129.173 130.42 128.861 130.908C128.549 131.388 128.385 132.188 128.369 133.308C128.577 132.956 128.881 132.684 129.281 132.492C129.681 132.3 130.113 132.204 130.577 132.204C131.105 132.204 131.569 132.32 131.969 132.552C132.377 132.776 132.693 133.104 132.917 133.536C133.149 133.968 133.265 134.484 133.265 135.084C133.265 135.644 133.153 136.144 132.929 136.584C132.713 137.024 132.389 137.372 131.957 137.628C131.525 137.876 131.005 138 130.397 138C129.573 138 128.925 137.82 128.453 137.46C127.989 137.092 127.661 136.576 127.469 135.912C127.285 135.248 127.193 134.42 127.193 133.428C127.193 130.5 128.225 129.036 130.289 129.036C131.089 129.036 131.717 129.252 132.173 129.684C132.637 130.116 132.909 130.648 132.989 131.28H131.729ZM130.277 133.356C129.789 133.356 129.373 133.504 129.029 133.8C128.693 134.088 128.525 134.508 128.525 135.06C128.525 135.612 128.681 136.052 128.993 136.38C129.313 136.7 129.757 136.86 130.325 136.86C130.829 136.86 131.225 136.704 131.513 136.392C131.809 136.08 131.957 135.664 131.957 135.144C131.957 134.6 131.813 134.168 131.525 133.848C131.245 133.52 130.829 133.356 130.277 133.356ZM139.968 130.308L136.632 138H135.252L138.624 130.452H134.184V129.288H139.968V130.308ZM140.815 131.412C140.863 130.668 141.147 130.088 141.667 129.672C142.195 129.256 142.867 129.048 143.683 129.048C144.243 129.048 144.727 129.148 145.135 129.348C145.543 129.548 145.851 129.82 146.059 130.164C146.267 130.508 146.371 130.896 146.371 131.328C146.371 131.824 146.239 132.248 145.975 132.6C145.711 132.952 145.395 133.188 145.027 133.308V133.356C145.499 133.5 145.867 133.764 146.131 134.148C146.395 134.524 146.527 135.008 146.527 135.6C146.527 136.072 146.419 136.492 146.203 136.86C145.987 137.228 145.667 137.52 145.243 137.736C144.819 137.944 144.311 138.048 143.719 138.048C142.855 138.048 142.143 137.828 141.583 137.388C141.031 136.94 140.735 136.3 140.695 135.468H142.015C142.047 135.892 142.211 136.24 142.507 136.512C142.803 136.776 143.203 136.908 143.707 136.908C144.195 136.908 144.571 136.776 144.835 136.512C145.099 136.24 145.231 135.892 145.231 135.468C145.231 134.908 145.051 134.512 144.691 134.28C144.339 134.04 143.795 133.92 143.059 133.92H142.747V132.792H143.071C143.719 132.784 144.211 132.676 144.547 132.468C144.891 132.26 145.063 131.932 145.063 131.484C145.063 131.1 144.939 130.796 144.691 130.572C144.443 130.34 144.091 130.224 143.635 130.224C143.187 130.224 142.839 130.34 142.591 130.572C142.343 130.796 142.195 131.076 142.147 131.412H140.815ZM149.368 135.624C149.448 136.024 149.62 136.328 149.884 136.536C150.148 136.744 150.504 136.848 150.952 136.848C151.52 136.848 151.936 136.624 152.2 136.176C152.464 135.728 152.596 134.964 152.596 133.884C152.404 134.156 152.132 134.368 151.78 134.52C151.436 134.664 151.06 134.736 150.652 134.736C150.132 134.736 149.66 134.632 149.236 134.424C148.812 134.208 148.476 133.892 148.228 133.476C147.988 133.052 147.868 132.54 147.868 131.94C147.868 131.06 148.124 130.36 148.636 129.84C149.156 129.312 149.868 129.048 150.772 129.048C151.86 129.048 152.632 129.412 153.088 130.14C153.552 130.86 153.784 131.968 153.784 133.464C153.784 134.496 153.696 135.34 153.52 135.996C153.352 136.652 153.056 137.148 152.632 137.484C152.208 137.82 151.62 137.988 150.868 137.988C150.012 137.988 149.352 137.764 148.888 137.316C148.424 136.868 148.164 136.304 148.108 135.624H149.368ZM150.892 133.584C151.372 133.584 151.748 133.436 152.02 133.14C152.3 132.836 152.44 132.436 152.44 131.94C152.44 131.388 152.292 130.96 151.996 130.656C151.708 130.344 151.312 130.188 150.808 130.188C150.304 130.188 149.904 130.348 149.608 130.668C149.32 130.98 149.176 131.392 149.176 131.904C149.176 132.392 149.316 132.796 149.596 133.116C149.884 133.428 150.316 133.584 150.892 133.584Z" fill="white"/>
<path d="M50.302 165.144C50.302 165.657 50.1667 166.133 49.896 166.572C49.6347 167.001 49.2427 167.356 48.72 167.636C48.2067 167.907 47.5953 168.056 46.886 168.084V169.218H45.99V168.07C45.0007 167.986 44.2027 167.692 43.596 167.188C42.9893 166.675 42.6673 165.979 42.63 165.102H45.178C45.234 165.662 45.5047 166.021 45.99 166.18V163.968C45.262 163.781 44.6787 163.599 44.24 163.422C43.8107 163.245 43.4327 162.96 43.106 162.568C42.7793 162.176 42.616 161.639 42.616 160.958C42.616 160.109 42.9287 159.427 43.554 158.914C44.1887 158.401 45.0007 158.111 45.99 158.046V156.912H46.886V158.046C47.866 158.121 48.6407 158.405 49.21 158.9C49.7793 159.395 50.0967 160.081 50.162 160.958H47.6C47.544 160.454 47.306 160.127 46.886 159.978V162.148C47.6607 162.363 48.258 162.554 48.678 162.722C49.098 162.89 49.4713 163.17 49.798 163.562C50.134 163.945 50.302 164.472 50.302 165.144ZM45.15 160.846C45.15 161.079 45.22 161.275 45.36 161.434C45.5093 161.593 45.7193 161.733 45.99 161.854V159.908C45.7287 159.955 45.5233 160.057 45.374 160.216C45.2247 160.365 45.15 160.575 45.15 160.846ZM46.886 166.222C47.166 166.175 47.3853 166.063 47.544 165.886C47.712 165.709 47.796 165.489 47.796 165.228C47.796 164.985 47.7167 164.789 47.558 164.64C47.4087 164.481 47.1847 164.346 46.886 164.234V166.222ZM51.2928 160.006V157.78H55.1708V168H52.6788V160.006H51.2928ZM56.4245 166.082C56.7418 165.83 56.8865 165.713 56.8585 165.732C57.7732 164.976 58.4918 164.355 59.0145 163.87C59.5465 163.385 59.9945 162.876 60.3585 162.344C60.7225 161.812 60.9045 161.294 60.9045 160.79C60.9045 160.407 60.8158 160.109 60.6385 159.894C60.4612 159.679 60.1952 159.572 59.8405 159.572C59.4858 159.572 59.2058 159.707 59.0005 159.978C58.8045 160.239 58.7065 160.613 58.7065 161.098H56.3965C56.4152 160.305 56.5832 159.642 56.9005 159.11C57.2272 158.578 57.6518 158.186 58.1745 157.934C58.7065 157.682 59.2945 157.556 59.9385 157.556C61.0492 157.556 61.8845 157.841 62.4445 158.41C63.0138 158.979 63.2985 159.721 63.2985 160.636C63.2985 161.635 62.9578 162.563 62.2765 163.422C61.5952 164.271 60.7272 165.102 59.6725 165.914H63.4525V167.86H56.4245V166.082ZM65.5646 168.112C65.1446 168.112 64.7992 167.991 64.5286 167.748C64.2672 167.496 64.1366 167.188 64.1366 166.824C64.1366 166.451 64.2672 166.138 64.5286 165.886C64.7992 165.634 65.1446 165.508 65.5646 165.508C65.9752 165.508 66.3112 165.634 66.5726 165.886C66.8432 166.138 66.9786 166.451 66.9786 166.824C66.9786 167.188 66.8432 167.496 66.5726 167.748C66.3112 167.991 65.9752 168.112 65.5646 168.112ZM70.4337 165.004C70.5737 165.741 71.0031 166.11 71.7217 166.11C72.2164 166.11 72.5664 165.891 72.7717 165.452C72.9771 165.013 73.0797 164.299 73.0797 163.31C72.8744 163.599 72.5944 163.823 72.2397 163.982C71.8851 164.141 71.4884 164.22 71.0497 164.22C70.4524 164.22 69.9204 164.099 69.4537 163.856C68.9871 163.604 68.6184 163.235 68.3477 162.75C68.0864 162.255 67.9557 161.658 67.9557 160.958C67.9557 160.267 68.0957 159.665 68.3757 159.152C68.6651 158.639 69.0711 158.242 69.5937 157.962C70.1257 157.682 70.7511 157.542 71.4697 157.542C72.8511 157.542 73.8171 157.971 74.3677 158.83C74.9184 159.689 75.1937 160.953 75.1937 162.624C75.1937 163.837 75.0817 164.841 74.8577 165.634C74.6431 166.418 74.2744 167.015 73.7517 167.426C73.2384 167.837 72.5337 168.042 71.6377 168.042C70.9284 168.042 70.3217 167.902 69.8177 167.622C69.3231 167.342 68.9404 166.973 68.6697 166.516C68.4084 166.059 68.2591 165.555 68.2217 165.004H70.4337ZM71.5957 162.33C71.9877 162.33 72.3004 162.213 72.5337 161.98C72.7671 161.737 72.8837 161.411 72.8837 161C72.8837 160.552 72.7624 160.207 72.5197 159.964C72.2771 159.721 71.9504 159.6 71.5397 159.6C71.1291 159.6 70.8024 159.726 70.5597 159.978C70.3264 160.221 70.2097 160.557 70.2097 160.986C70.2097 161.387 70.3264 161.714 70.5597 161.966C70.8024 162.209 71.1477 162.33 71.5957 162.33ZM78.747 165.004C78.887 165.741 79.3163 166.11 80.035 166.11C80.5297 166.11 80.8797 165.891 81.085 165.452C81.2903 165.013 81.393 164.299 81.393 163.31C81.1877 163.599 80.9077 163.823 80.553 163.982C80.1983 164.141 79.8017 164.22 79.363 164.22C78.7657 164.22 78.2337 164.099 77.767 163.856C77.3003 163.604 76.9317 163.235 76.661 162.75C76.3997 162.255 76.269 161.658 76.269 160.958C76.269 160.267 76.409 159.665 76.689 159.152C76.9783 158.639 77.3843 158.242 77.907 157.962C78.439 157.682 79.0643 157.542 79.783 157.542C81.1643 157.542 82.1303 157.971 82.681 158.83C83.2317 159.689 83.507 160.953 83.507 162.624C83.507 163.837 83.395 164.841 83.171 165.634C82.9563 166.418 82.5877 167.015 82.065 167.426C81.5517 167.837 80.847 168.042 79.951 168.042C79.2417 168.042 78.635 167.902 78.131 167.622C77.6363 167.342 77.2537 166.973 76.983 166.516C76.7217 166.059 76.5723 165.555 76.535 165.004H78.747ZM79.909 162.33C80.301 162.33 80.6137 162.213 80.847 161.98C81.0803 161.737 81.197 161.411 81.197 161C81.197 160.552 81.0757 160.207 80.833 159.964C80.5903 159.721 80.2637 159.6 79.853 159.6C79.4423 159.6 79.1157 159.726 78.873 159.978C78.6397 160.221 78.523 160.557 78.523 160.986C78.523 161.387 78.6397 161.714 78.873 161.966C79.1157 162.209 79.461 162.33 79.909 162.33ZM87.0603 165.004C87.2003 165.741 87.6296 166.11 88.3483 166.11C88.843 166.11 89.193 165.891 89.3983 165.452C89.6036 165.013 89.7063 164.299 89.7063 163.31C89.501 163.599 89.221 163.823 88.8663 163.982C88.5116 164.141 88.115 164.22 87.6763 164.22C87.079 164.22 86.547 164.099 86.0803 163.856C85.6136 163.604 85.245 163.235 84.9743 162.75C84.713 162.255 84.5823 161.658 84.5823 160.958C84.5823 160.267 84.7223 159.665 85.0023 159.152C85.2916 158.639 85.6976 158.242 86.2203 157.962C86.7523 157.682 87.3776 157.542 88.0963 157.542C89.4776 157.542 90.4436 157.971 90.9943 158.83C91.545 159.689 91.8203 160.953 91.8203 162.624C91.8203 163.837 91.7083 164.841 91.4843 165.634C91.2696 166.418 90.901 167.015 90.3783 167.426C89.865 167.837 89.1603 168.042 88.2643 168.042C87.555 168.042 86.9483 167.902 86.4443 167.622C85.9496 167.342 85.567 166.973 85.2963 166.516C85.035 166.059 84.8856 165.555 84.8483 165.004H87.0603ZM88.2223 162.33C88.6143 162.33 88.927 162.213 89.1603 161.98C89.3936 161.737 89.5103 161.411 89.5103 161C89.5103 160.552 89.389 160.207 89.1463 159.964C88.9036 159.721 88.577 159.6 88.1663 159.6C87.7556 159.6 87.429 159.726 87.1863 159.978C86.953 160.221 86.8363 160.557 86.8363 160.986C86.8363 161.387 86.953 161.714 87.1863 161.966C87.429 162.209 87.7743 162.33 88.2223 162.33ZM94.1556 168.112C93.7356 168.112 93.3902 167.991 93.1196 167.748C92.8582 167.496 92.7276 167.188 92.7276 166.824C92.7276 166.451 92.8582 166.138 93.1196 165.886C93.3902 165.634 93.7356 165.508 94.1556 165.508C94.5662 165.508 94.9022 165.634 95.1636 165.886C95.4342 166.138 95.5696 166.451 95.5696 166.824C95.5696 167.188 95.4342 167.496 95.1636 167.748C94.9022 167.991 94.5662 168.112 94.1556 168.112ZM99.0247 165.004C99.1647 165.741 99.5941 166.11 100.313 166.11C100.807 166.11 101.157 165.891 101.363 165.452C101.568 165.013 101.671 164.299 101.671 163.31C101.465 163.599 101.185 163.823 100.831 163.982C100.476 164.141 100.079 164.22 99.6407 164.22C99.0434 164.22 98.5114 164.099 98.0447 163.856C97.5781 163.604 97.2094 163.235 96.9387 162.75C96.6774 162.255 96.5467 161.658 96.5467 160.958C96.5467 160.267 96.6867 159.665 96.9667 159.152C97.2561 158.639 97.6621 158.242 98.1847 157.962C98.7167 157.682 99.3421 157.542 100.061 157.542C101.442 157.542 102.408 157.971 102.959 158.83C103.509 159.689 103.785 160.953 103.785 162.624C103.785 163.837 103.673 164.841 103.449 165.634C103.234 166.418 102.865 167.015 102.343 167.426C101.829 167.837 101.125 168.042 100.229 168.042C99.5194 168.042 98.9127 167.902 98.4087 167.622C97.9141 167.342 97.5314 166.973 97.2607 166.516C96.9994 166.059 96.8501 165.555 96.8127 165.004H99.0247ZM100.187 162.33C100.579 162.33 100.891 162.213 101.125 161.98C101.358 161.737 101.475 161.411 101.475 161C101.475 160.552 101.353 160.207 101.111 159.964C100.868 159.721 100.541 159.6 100.131 159.6C99.7201 159.6 99.3934 159.726 99.1507 159.978C98.9174 160.221 98.8007 160.557 98.8007 160.986C98.8007 161.387 98.9174 161.714 99.1507 161.966C99.3934 162.209 99.7387 162.33 100.187 162.33ZM107.338 165.004C107.478 165.741 107.907 166.11 108.626 166.11C109.121 166.11 109.471 165.891 109.676 165.452C109.881 165.013 109.984 164.299 109.984 163.31C109.779 163.599 109.499 163.823 109.144 163.982C108.789 164.141 108.393 164.22 107.954 164.22C107.357 164.22 106.825 164.099 106.358 163.856C105.891 163.604 105.523 163.235 105.252 162.75C104.991 162.255 104.86 161.658 104.86 160.958C104.86 160.267 105 159.665 105.28 159.152C105.569 158.639 105.975 158.242 106.498 157.962C107.03 157.682 107.655 157.542 108.374 157.542C109.755 157.542 110.721 157.971 111.272 158.83C111.823 159.689 112.098 160.953 112.098 162.624C112.098 163.837 111.986 164.841 111.762 165.634C111.547 166.418 111.179 167.015 110.656 167.426C110.143 167.837 109.438 168.042 108.542 168.042C107.833 168.042 107.226 167.902 106.722 167.622C106.227 167.342 105.845 166.973 105.574 166.516C105.313 166.059 105.163 165.555 105.126 165.004H107.338ZM108.5 162.33C108.892 162.33 109.205 162.213 109.438 161.98C109.671 161.737 109.788 161.411 109.788 161C109.788 160.552 109.667 160.207 109.424 159.964C109.181 159.721 108.855 159.6 108.444 159.6C108.033 159.6 107.707 159.726 107.464 159.978C107.231 160.221 107.114 160.557 107.114 160.986C107.114 161.387 107.231 161.714 107.464 161.966C107.707 162.209 108.052 162.33 108.5 162.33ZM115.651 165.004C115.791 165.741 116.221 166.11 116.939 166.11C117.434 166.11 117.784 165.891 117.989 165.452C118.195 165.013 118.297 164.299 118.297 163.31C118.092 163.599 117.812 163.823 117.457 163.982C117.103 164.141 116.706 164.22 116.267 164.22C115.67 164.22 115.138 164.099 114.671 163.856C114.205 163.604 113.836 163.235 113.565 162.75C113.304 162.255 113.173 161.658 113.173 160.958C113.173 160.267 113.313 159.665 113.593 159.152C113.883 158.639 114.289 158.242 114.811 157.962C115.343 157.682 115.969 157.542 116.687 157.542C118.069 157.542 119.035 157.971 119.585 158.83C120.136 159.689 120.411 160.953 120.411 162.624C120.411 163.837 120.299 164.841 120.075 165.634C119.861 166.418 119.492 167.015 118.969 167.426C118.456 167.837 117.751 168.042 116.855 168.042C116.146 168.042 115.539 167.902 115.035 167.622C114.541 167.342 114.158 166.973 113.887 166.516C113.626 166.059 113.477 165.555 113.439 165.004H115.651ZM116.813 162.33C117.205 162.33 117.518 162.213 117.751 161.98C117.985 161.737 118.101 161.411 118.101 161C118.101 160.552 117.98 160.207 117.737 159.964C117.495 159.721 117.168 159.6 116.757 159.6C116.347 159.6 116.02 159.726 115.777 159.978C115.544 160.221 115.427 160.557 115.427 160.986C115.427 161.387 115.544 161.714 115.777 161.966C116.02 162.209 116.365 162.33 116.813 162.33ZM122.747 168.112C122.327 168.112 121.981 167.991 121.711 167.748C121.449 167.496 121.319 167.188 121.319 166.824C121.319 166.451 121.449 166.138 121.711 165.886C121.981 165.634 122.327 165.508 122.747 165.508C123.157 165.508 123.493 165.634 123.755 165.886C124.025 166.138 124.161 166.451 124.161 166.824C124.161 167.188 124.025 167.496 123.755 167.748C123.493 167.991 123.157 168.112 122.747 168.112ZM127.616 165.004C127.756 165.741 128.185 166.11 128.904 166.11C129.398 166.11 129.748 165.891 129.954 165.452C130.159 165.013 130.262 164.299 130.262 163.31C130.056 163.599 129.776 163.823 129.422 163.982C129.067 164.141 128.67 164.22 128.232 164.22C127.634 164.22 127.102 164.099 126.636 163.856C126.169 163.604 125.8 163.235 125.53 162.75C125.268 162.255 125.138 161.658 125.138 160.958C125.138 160.267 125.278 159.665 125.558 159.152C125.847 158.639 126.253 158.242 126.776 157.962C127.308 157.682 127.933 157.542 128.652 157.542C130.033 157.542 130.999 157.971 131.55 158.83C132.1 159.689 132.376 160.953 132.376 162.624C132.376 163.837 132.264 164.841 132.04 165.634C131.825 166.418 131.456 167.015 130.934 167.426C130.42 167.837 129.716 168.042 128.82 168.042C128.11 168.042 127.504 167.902 127 167.622C126.505 167.342 126.122 166.973 125.852 166.516C125.59 166.059 125.441 165.555 125.404 165.004H127.616ZM128.778 162.33C129.17 162.33 129.482 162.213 129.716 161.98C129.949 161.737 130.066 161.411 130.066 161C130.066 160.552 129.944 160.207 129.702 159.964C129.459 159.721 129.132 159.6 128.722 159.6C128.311 159.6 127.984 159.726 127.742 159.978C127.508 160.221 127.392 160.557 127.392 160.986C127.392 161.387 127.508 161.714 127.742 161.966C127.984 162.209 128.33 162.33 128.778 162.33ZM135.929 165.004C136.069 165.741 136.498 166.11 137.217 166.11C137.712 166.11 138.062 165.891 138.267 165.452C138.472 165.013 138.575 164.299 138.575 163.31C138.37 163.599 138.09 163.823 137.735 163.982C137.38 164.141 136.984 164.22 136.545 164.22C135.948 164.22 135.416 164.099 134.949 163.856C134.482 163.604 134.114 163.235 133.843 162.75C133.582 162.255 133.451 161.658 133.451 160.958C133.451 160.267 133.591 159.665 133.871 159.152C134.16 158.639 134.566 158.242 135.089 157.962C135.621 157.682 136.246 157.542 136.965 157.542C138.346 157.542 139.312 157.971 139.863 158.83C140.414 159.689 140.689 160.953 140.689 162.624C140.689 163.837 140.577 164.841 140.353 165.634C140.138 166.418 139.77 167.015 139.247 167.426C138.734 167.837 138.029 168.042 137.133 168.042C136.424 168.042 135.817 167.902 135.313 167.622C134.818 167.342 134.436 166.973 134.165 166.516C133.904 166.059 133.754 165.555 133.717 165.004H135.929ZM137.091 162.33C137.483 162.33 137.796 162.213 138.029 161.98C138.262 161.737 138.379 161.411 138.379 161C138.379 160.552 138.258 160.207 138.015 159.964C137.772 159.721 137.446 159.6 137.035 159.6C136.624 159.6 136.298 159.726 136.055 159.978C135.822 160.221 135.705 160.557 135.705 160.986C135.705 161.387 135.822 161.714 136.055 161.966C136.298 162.209 136.643 162.33 137.091 162.33Z" fill="white"/>
</svg>
