<svg width="20" height="20" viewBox="0 0 20 20" fill="none" xmlns="http://www.w3.org/2000/svg">
<g clip-path="url(#clip0_28_5)">
<path d="M16.6194 4.59912C16.4975 4.52733 16.3475 4.52233 16.2211 4.5858C16.0948 4.64944 16.0095 4.77276 15.9944 4.9133C15.9794 5.04998 15.9561 5.18662 15.9269 5.32998C15.1111 9.03248 13.4727 10.8333 10.9169 10.8333H7.16689C6.96916 10.8337 6.79892 10.9729 6.75939 11.1666L5.5094 17.0258L5.28608 18.5175C5.15768 19.1958 5.60346 19.8498 6.28174 19.9782C6.35654 19.9923 6.43244 19.9996 6.50857 20H9.01689C9.59181 20.0017 10.0931 19.6094 10.2294 19.0508L11.2427 15H13.4169C15.9827 15 17.7561 12.9542 18.4102 9.23916C18.842 7.47018 18.1276 5.61932 16.6194 4.59912Z" fill="#03A9F4"/>
<path d="M15.8336 1.48503C15.0103 0.551084 13.8287 0.0111631 12.5836 3.03448e-05H5.68364C4.65103 -0.00551652 3.77189 0.74999 3.62201 1.77167L1.47951 16.0641C1.3769 16.7468 1.84709 17.3834 2.52978 17.4861C2.59174 17.4954 2.65435 17.5 2.71701 17.5H5.917C6.11474 17.4996 6.28497 17.3604 6.3245 17.1667L7.50368 11.6667H10.9204C13.8853 11.6667 15.8445 9.59419 16.7445 5.50002C16.7807 5.33682 16.8085 5.1719 16.8278 5.00584C17.0367 3.74276 16.6723 2.45225 15.8336 1.48503Z" fill="#283593"/>
</g>
<defs>
<clipPath id="clip0_28_5">
<rect width="20" height="20" fill="white"/>
</clipPath>
</defs>
</svg>
